<mxfile host="Electron" modified="2023-08-03T08:12:23.453Z" agent="Mozilla/5.0 (X11; Linux x86_64) AppleWebKit/537.36 (KHTML, like Gecko) draw.io/21.6.5 Chrome/114.0.5735.243 Electron/25.3.1 Safari/537.36" etag="aXnjjX860c0rfIjl5OnN" version="21.6.5" type="device">
  <diagram name="第 1 页" id="d-es2bqYCF5uI0et1yHT">
    <mxGraphModel dx="1532" dy="1138" grid="1" gridSize="10" guides="1" tooltips="1" connect="1" arrows="1" fold="1" page="0" pageScale="1" pageWidth="827" pageHeight="1169" math="0" shadow="0">
      <root>
        <mxCell id="0" />
        <mxCell id="1" parent="0" />
        <mxCell id="aEEH2E59BDRfBV04FrGM-3" style="edgeStyle=none;curved=1;rounded=0;orthogonalLoop=1;jettySize=auto;html=1;fontSize=12;startSize=8;endSize=8;endArrow=halfCircle;endFill=0;" edge="1" parent="1" source="aEEH2E59BDRfBV04FrGM-2" target="aEEH2E59BDRfBV04FrGM-4">
          <mxGeometry relative="1" as="geometry">
            <mxPoint y="10" as="targetPoint" />
          </mxGeometry>
        </mxCell>
        <mxCell id="aEEH2E59BDRfBV04FrGM-7" style="edgeStyle=orthogonalEdgeStyle;rounded=0;orthogonalLoop=1;jettySize=auto;html=1;fontSize=12;startSize=8;endSize=8;endArrow=halfCircle;endFill=0;" edge="1" parent="1" source="aEEH2E59BDRfBV04FrGM-2" target="aEEH2E59BDRfBV04FrGM-6">
          <mxGeometry relative="1" as="geometry" />
        </mxCell>
        <mxCell id="aEEH2E59BDRfBV04FrGM-2" value="" style="shape=waypoint;sketch=0;fillStyle=solid;size=6;pointerEvents=1;points=[];fillColor=none;resizable=0;rotatable=0;perimeter=centerPerimeter;snapToPoint=1;fontSize=16;" vertex="1" parent="1">
          <mxGeometry x="-150" width="20" height="20" as="geometry" />
        </mxCell>
        <mxCell id="aEEH2E59BDRfBV04FrGM-23" style="edgeStyle=none;curved=1;rounded=0;orthogonalLoop=1;jettySize=auto;html=1;fontSize=12;startSize=8;endSize=8;" edge="1" parent="1" source="aEEH2E59BDRfBV04FrGM-4">
          <mxGeometry relative="1" as="geometry">
            <mxPoint x="70" y="10" as="targetPoint" />
          </mxGeometry>
        </mxCell>
        <mxCell id="aEEH2E59BDRfBV04FrGM-4" value="" style="shape=waypoint;sketch=0;fillStyle=solid;size=6;pointerEvents=1;points=[];fillColor=none;resizable=0;rotatable=0;perimeter=centerPerimeter;snapToPoint=1;fontSize=16;" vertex="1" parent="1">
          <mxGeometry width="20" height="20" as="geometry" />
        </mxCell>
        <mxCell id="aEEH2E59BDRfBV04FrGM-8" style="edgeStyle=orthogonalEdgeStyle;rounded=0;orthogonalLoop=1;jettySize=auto;html=1;fontSize=12;startSize=8;endSize=8;endArrow=halfCircle;endFill=0;" edge="1" parent="1" source="aEEH2E59BDRfBV04FrGM-6" target="aEEH2E59BDRfBV04FrGM-9">
          <mxGeometry relative="1" as="geometry">
            <mxPoint x="10" y="70" as="targetPoint" />
          </mxGeometry>
        </mxCell>
        <mxCell id="aEEH2E59BDRfBV04FrGM-6" value="" style="shape=waypoint;sketch=0;fillStyle=solid;size=6;pointerEvents=1;points=[];fillColor=none;resizable=0;rotatable=0;perimeter=centerPerimeter;snapToPoint=1;fontSize=16;" vertex="1" parent="1">
          <mxGeometry x="-90" y="60" width="20" height="20" as="geometry" />
        </mxCell>
        <mxCell id="aEEH2E59BDRfBV04FrGM-24" style="edgeStyle=none;curved=1;rounded=0;orthogonalLoop=1;jettySize=auto;html=1;fontSize=12;startSize=8;endSize=8;" edge="1" parent="1" source="aEEH2E59BDRfBV04FrGM-9">
          <mxGeometry relative="1" as="geometry">
            <mxPoint x="70" y="70" as="targetPoint" />
          </mxGeometry>
        </mxCell>
        <mxCell id="aEEH2E59BDRfBV04FrGM-9" value="" style="shape=waypoint;sketch=0;fillStyle=solid;size=6;pointerEvents=1;points=[];fillColor=none;resizable=0;rotatable=0;perimeter=centerPerimeter;snapToPoint=1;fontSize=16;" vertex="1" parent="1">
          <mxGeometry y="60" width="20" height="20" as="geometry" />
        </mxCell>
        <mxCell id="aEEH2E59BDRfBV04FrGM-10" value="(+)" style="text;html=1;align=center;verticalAlign=middle;resizable=0;points=[];autosize=1;strokeColor=none;fillColor=none;fontSize=16;" vertex="1" parent="1">
          <mxGeometry x="-60" y="-22" width="40" height="30" as="geometry" />
        </mxCell>
        <mxCell id="aEEH2E59BDRfBV04FrGM-11" value="(+)" style="text;html=1;align=center;verticalAlign=middle;resizable=0;points=[];autosize=1;strokeColor=none;fillColor=none;fontSize=16;" vertex="1" parent="1">
          <mxGeometry x="-120" y="20" width="40" height="30" as="geometry" />
        </mxCell>
        <mxCell id="aEEH2E59BDRfBV04FrGM-12" value="(-)" style="text;html=1;align=center;verticalAlign=middle;resizable=0;points=[];autosize=1;strokeColor=none;fillColor=none;fontSize=16;" vertex="1" parent="1">
          <mxGeometry x="-60" y="40" width="40" height="30" as="geometry" />
        </mxCell>
        <mxCell id="aEEH2E59BDRfBV04FrGM-28" value="" style="edgeStyle=none;curved=1;rounded=0;orthogonalLoop=1;jettySize=auto;html=1;fontSize=12;startSize=8;endSize=8;endArrow=halfCircle;endFill=0;" edge="1" parent="1" source="aEEH2E59BDRfBV04FrGM-25" target="aEEH2E59BDRfBV04FrGM-27">
          <mxGeometry relative="1" as="geometry" />
        </mxCell>
        <mxCell id="aEEH2E59BDRfBV04FrGM-29" style="edgeStyle=orthogonalEdgeStyle;rounded=0;orthogonalLoop=1;jettySize=auto;html=1;fontSize=12;startSize=8;endSize=8;endArrow=halfCircle;endFill=0;" edge="1" parent="1" source="aEEH2E59BDRfBV04FrGM-25" target="aEEH2E59BDRfBV04FrGM-30">
          <mxGeometry relative="1" as="geometry">
            <mxPoint x="210" y="70" as="targetPoint" />
          </mxGeometry>
        </mxCell>
        <mxCell id="aEEH2E59BDRfBV04FrGM-25" value="" style="shape=waypoint;sketch=0;size=6;pointerEvents=1;points=[];fillColor=none;resizable=0;rotatable=0;perimeter=centerPerimeter;snapToPoint=1;fontSize=16;" vertex="1" parent="1">
          <mxGeometry x="150" width="20" height="20" as="geometry" />
        </mxCell>
        <mxCell id="aEEH2E59BDRfBV04FrGM-32" style="edgeStyle=none;curved=1;rounded=0;orthogonalLoop=1;jettySize=auto;html=1;fontSize=12;startSize=8;endSize=8;" edge="1" parent="1" source="aEEH2E59BDRfBV04FrGM-27">
          <mxGeometry relative="1" as="geometry">
            <mxPoint x="360" y="10" as="targetPoint" />
          </mxGeometry>
        </mxCell>
        <mxCell id="aEEH2E59BDRfBV04FrGM-27" value="" style="shape=waypoint;sketch=0;size=6;pointerEvents=1;points=[];fillColor=none;resizable=0;rotatable=0;perimeter=centerPerimeter;snapToPoint=1;fontSize=16;" vertex="1" parent="1">
          <mxGeometry x="290" width="20" height="20" as="geometry" />
        </mxCell>
        <mxCell id="aEEH2E59BDRfBV04FrGM-31" style="edgeStyle=orthogonalEdgeStyle;rounded=0;orthogonalLoop=1;jettySize=auto;html=1;entryX=0.458;entryY=0.921;entryDx=0;entryDy=0;entryPerimeter=0;fontSize=12;startSize=8;endSize=8;endArrow=halfCircle;endFill=0;" edge="1" parent="1" source="aEEH2E59BDRfBV04FrGM-30" target="aEEH2E59BDRfBV04FrGM-25">
          <mxGeometry relative="1" as="geometry" />
        </mxCell>
        <mxCell id="aEEH2E59BDRfBV04FrGM-30" value="" style="shape=waypoint;sketch=0;fillStyle=solid;size=6;pointerEvents=1;points=[];fillColor=none;resizable=0;rotatable=0;perimeter=centerPerimeter;snapToPoint=1;fontSize=16;" vertex="1" parent="1">
          <mxGeometry x="220" y="60" width="20" height="20" as="geometry" />
        </mxCell>
        <mxCell id="aEEH2E59BDRfBV04FrGM-33" value="(+)" style="text;html=1;align=center;verticalAlign=middle;resizable=0;points=[];autosize=1;strokeColor=none;fillColor=none;fontSize=16;" vertex="1" parent="1">
          <mxGeometry x="240" y="-22" width="40" height="30" as="geometry" />
        </mxCell>
        <mxCell id="aEEH2E59BDRfBV04FrGM-34" value="(+)" style="text;html=1;align=center;verticalAlign=middle;resizable=0;points=[];autosize=1;strokeColor=none;fillColor=none;fontSize=16;" vertex="1" parent="1">
          <mxGeometry x="190" y="20" width="40" height="30" as="geometry" />
        </mxCell>
        <mxCell id="aEEH2E59BDRfBV04FrGM-35" value="(-)" style="text;html=1;align=center;verticalAlign=middle;resizable=0;points=[];autosize=1;strokeColor=none;fillColor=none;fontSize=16;" vertex="1" parent="1">
          <mxGeometry x="120" y="20" width="40" height="30" as="geometry" />
        </mxCell>
      </root>
    </mxGraphModel>
  </diagram>
</mxfile>
